<svg xmlns="http://www.w3.org/2000/svg" viewBox="0 0 500 500"><g id="freepik--background-simple--inject-67"><rect x="217.89" y="271.25" width="51.36" height="44.12" style="fill:#33A3AE"></rect><rect x="217.89" y="218.8" width="51.36" height="44.12" style="fill:#33A3AE"></rect><rect x="217.89" y="113" width="51.36" height="45.02" style="fill:#33A3AE"></rect><rect x="217.89" y="166.35" width="51.36" height="44.12" style="fill:#33A3AE"></rect><path d="M416.38,169.18H372.82v-60q-2.86-2.61-5.82-5.08v72.07h52.38Q418,172.66,416.38,169.18Z" style="fill:#33A3AE"></path><path d="M387,123.65c-3.82-4.35-7.85-8.51-12-12.47h-.15v56h40.65A185.77,185.77,0,0,0,387,123.65Z" style="fill:#33A3AE"></path><rect x="278.48" y="323.7" width="51.36" height="45.93" style="fill:#33A3AE"></rect><path d="M169,114.65c-1.94,1.55-3.87,3.1-5.82,4.63v49.9H110.82V152.11c-2,1.12-3.92,2.24-5.82,3.36v20.71h64Z" style="fill:#33A3AE"></path><path d="M161.18,120.85c-10.09,7.88-20.4,15.28-31.51,21.07C123.82,145,118.19,148,112.82,151v16.2h48.36Z" style="fill:#33A3AE"></path><path d="M217.89,341.83c17.43,6.22,33.09,18,49.87,27.8h1.49V323.7H217.89Z" style="fill:#33A3AE"></path><rect x="278.48" y="166.35" width="51.36" height="44.12" style="fill:#33A3AE"></rect><rect x="278.48" y="218.8" width="51.36" height="44.12" style="fill:#33A3AE"></rect><path d="M338,104H209.76V339.4c2.07.49,4.11,1.08,6.13,1.75V321.7h55.36v49.93h0a144.75,144.75,0,0,0,14.17,7H338ZM271.25,317.37H215.89V269.25h55.36Zm0-52.45H215.89V216.8h55.36Zm0-52.45H215.89V164.35h55.36Zm0-52.45H215.89V111h55.36Zm60.59,211.61H276.48V321.7h55.36Zm0-54.26H276.48V269.25h55.36Zm0-52.45H276.48V216.8h55.36Zm0-52.45H276.48V164.35h55.36Zm0-52.45H276.48V111h55.36Z" style="fill:#33A3AE"></path><rect x="278.48" y="271.25" width="51.36" height="44.12" style="fill:#33A3AE"></rect><path d="M365,178.18V102.47c-26.38-21.4-58.52-34.85-92.68-35.95C229,65.12,200,89.62,171,113v65.15H103v-21.5c-32.34,19.47-54,40.81-58.54,79-5.74,47.88-1,92.71,38.3,115.13s63.18-15.28,113.92-13.25a68.22,68.22,0,0,1,11.08,1.4V102H340V380.67H290.49c15,5.46,31.51,7.41,51.23,1.72,41.89-12.07,72.95-56.32,84.63-98.89,9.9-36.1,6.55-72.71-6.17-105.32Z" style="fill:#33A3AE"></path><rect x="278.48" y="113" width="51.36" height="45.02" style="fill:#33A3AE"></rect><g style="opacity:0.7000000000000001"><rect x="217.89" y="271.25" width="51.36" height="44.12" style="fill:#fff"></rect><rect x="217.89" y="218.8" width="51.36" height="44.12" style="fill:#fff"></rect><rect x="217.89" y="113" width="51.36" height="45.02" style="fill:#fff"></rect><rect x="217.89" y="166.35" width="51.36" height="44.12" style="fill:#fff"></rect><path d="M416.38,169.18H372.82v-60q-2.86-2.61-5.82-5.08v72.07h52.38Q418,172.66,416.38,169.18Z" style="fill:#fff"></path><path d="M387,123.65c-3.82-4.35-7.85-8.51-12-12.47h-.15v56h40.65A185.77,185.77,0,0,0,387,123.65Z" style="fill:#fff"></path><rect x="278.48" y="323.7" width="51.36" height="45.93" style="fill:#fff"></rect><path d="M169,114.65c-1.94,1.55-3.87,3.1-5.82,4.63v49.9H110.82V152.11c-2,1.12-3.92,2.24-5.82,3.36v20.71h64Z" style="fill:#fff"></path><path d="M161.18,120.85c-10.09,7.88-20.4,15.28-31.51,21.07C123.82,145,118.19,148,112.82,151v16.2h48.36Z" style="fill:#fff"></path><path d="M217.89,341.83c17.43,6.22,33.09,18,49.87,27.8h1.49V323.7H217.89Z" style="fill:#fff"></path><rect x="278.48" y="166.35" width="51.36" height="44.12" style="fill:#fff"></rect><rect x="278.48" y="218.8" width="51.36" height="44.12" style="fill:#fff"></rect><path d="M338,104H209.76V339.4c2.07.49,4.11,1.08,6.13,1.75V321.7h55.36v49.93h0a144.75,144.75,0,0,0,14.17,7H338ZM271.25,317.37H215.89V269.25h55.36Zm0-52.45H215.89V216.8h55.36Zm0-52.45H215.89V164.35h55.36Zm0-52.45H215.89V111h55.36Zm60.59,211.61H276.48V321.7h55.36Zm0-54.26H276.48V269.25h55.36Zm0-52.45H276.48V216.8h55.36Zm0-52.45H276.48V164.35h55.36Zm0-52.45H276.48V111h55.36Z" style="fill:#fff"></path><rect x="278.48" y="271.25" width="51.36" height="44.12" style="fill:#fff"></rect><path d="M365,178.18V102.47c-26.38-21.4-58.52-34.85-92.68-35.95C229,65.12,200,89.62,171,113v65.15H103v-21.5c-32.34,19.47-54,40.81-58.54,79-5.74,47.88-1,92.71,38.3,115.13s63.18-15.28,113.92-13.25a68.22,68.22,0,0,1,11.08,1.4V102H340V380.67H290.49c15,5.46,31.51,7.41,51.23,1.72,41.89-12.07,72.95-56.32,84.63-98.89,9.9-36.1,6.55-72.71-6.17-105.32Z" style="fill:#fff"></path><rect x="278.48" y="113" width="51.36" height="45.02" style="fill:#fff"></rect></g></g><g id="freepik--Ground--inject-67"><ellipse cx="249.45" cy="413.14" rx="209.8" ry="24.42" style="fill:#33A3AE"></ellipse><ellipse cx="249.45" cy="413.14" rx="209.8" ry="24.42" style="fill:#fff;opacity:0.5"></ellipse></g><g id="freepik--Plants--inject-67"><path d="M388.37,262.88c2,.88,6.9.77,6.91.77s-1.06-3.21-1.15-3.41c-1.07-2.25-4.47-6-7.24-5.59a3.3,3.3,0,0,0-2.65,4.14C384.7,260.71,386.66,262.14,388.37,262.88Z" style="fill:#33A3AE"></path><path d="M452.58,246.2c-2.78-.3-6.08,3.5-7.09,5.78-.09.2-1.11,3.43-1.06,3.43h.06c-.52.6-1.08,1.25-1.67,2-1.09,1.34-2.3,2.86-3.52,4.6a58.82,58.82,0,0,0-3.64,5.8,43.06,43.06,0,0,0-3.11,7s0,.06,0,.09c0-.82,0-3.11,0-3.28-.32-2.48-2.39-7.07-5.14-7.58a3.32,3.32,0,0,0-3.81,3.11c-.16,2,1.27,3.93,2.65,5.18,1.57,1.39,5.92,2.75,6.27,2.86a57.06,57.06,0,0,0-1.84,7.58c-.27,1.5-.49,3-.69,4.53,0-.71,0-1.34,0-1.43-.32-2.47-2.39-7.06-5.14-7.57a3.3,3.3,0,0,0-3.81,3.11c-.16,2,1.26,3.93,2.65,5.17s5.1,2.49,6.08,2.8c-.08.59-.15,1.17-.22,1.75-.34,2.8-.66,5.6-1.06,8.34-.14,1-.32,1.91-.49,2.85,0-.63,0-1.16,0-1.24-.32-2.47-2.39-7.06-5.14-7.57a3.31,3.31,0,0,0-3.81,3.11c-.16,2,1.26,3.93,2.65,5.17s4.74,2.37,5.9,2.75c-.21,1-.41,1.92-.65,2.85-.18.62-.31,1.24-.52,1.86s-.4,1.23-.59,1.84c-.42,1.15-.85,2.34-1.28,3.46-.3.77-.6,1.51-.9,2.25.15-1,.41-2.84.41-3a12.79,12.79,0,0,0-1.72-6.24,3.54,3.54,0,0,0,0-.73,3.31,3.31,0,0,0-4-2.81c-2.7.72-4.41,5.46-4.54,7.95,0,.15.09,1.75.17,2.76-.14-.59-.26-1.16-.41-1.76-.28-1.19-.6-2.38-.93-3.65-.19-.61-.38-1.23-.56-1.85s-.44-1.25-.66-1.89c-.53-1.45-1.14-2.91-1.79-4.36,1-.25,4.74-1.19,6.23-2.33s3-3,3-5a3.3,3.3,0,0,0-3.57-3.38c-2.78.3-5.19,4.72-5.69,7.16,0,.16-.2,1.95-.27,2.94-.4-.87-.79-1.74-1.22-2.61-1.24-2.5-2.57-5-3.89-7.48-.41-.76-.8-1.52-1.2-2.29.37-.08,4.79-1.11,6.45-2.38,1.48-1.14,3.05-3,3-5a3.31,3.31,0,0,0-3.57-3.39c-2.78.3-5.19,4.73-5.69,7.17,0,.18-.27,2.76-.3,3.42-.88-1.68-1.73-3.37-2.51-5.06a58.21,58.21,0,0,1-2.72-7c.17,0,4.79-1.09,6.49-2.4,1.48-1.13,3-3,3-5a3.3,3.3,0,0,0-3.57-3.38c-2.78.3-5.18,4.72-5.69,7.17,0,.19-.29,3-.3,3.47,0-.14-.1-.28-.14-.42a42.51,42.51,0,0,1-1.41-7.43c-.16-1.39-.23-2.72-.27-4,.88-.11,4.89-.64,6.56-1.65s3.35-2.64,3.55-4.6A3.29,3.29,0,0,0,402.6,254c-2.79,0-5.68,4.12-6.44,6.5-.05.12-.33,1.48-.52,2.48,0-.59,0-1.2,0-1.76,0-2.11.13-4,.27-5.76.08-1,.17-1.85.27-2.67.81-.55,4-2.83,5-4.46s1.76-3.89,1-5.72a3.31,3.31,0,0,0-4.55-1.87C395.2,242,394.55,247,395,249.5c0,.21,1,3.47,1,3.44l0,0c-.11.78-.21,1.63-.31,2.56-.17,1.71-.35,3.64-.4,5.76a59.5,59.5,0,0,0,.16,6.85,43.74,43.74,0,0,0,1.27,7.56l0,.09c-.44-.69-1.73-2.58-1.85-2.72-1.63-1.88-5.89-4.57-8.46-3.48a3.31,3.31,0,0,0-1.47,4.7c.95,1.73,3.23,2.58,5.07,2.85,2.08.3,6.45-1,6.8-1.07a58.83,58.83,0,0,0,2.65,7.34c.61,1.4,1.26,2.78,1.92,4.16-.39-.58-.76-1.1-.81-1.17-1.64-1.89-5.9-4.57-8.47-3.48a3.3,3.3,0,0,0-1.46,4.69c.95,1.73,3.22,2.59,5.06,2.85s5.63-.73,6.61-1c.27.53.52,1.06.79,1.58,1.26,2.52,2.54,5,3.71,7.54.42.88.79,1.76,1.17,2.64-.35-.51-.66-.95-.71-1-1.63-1.89-5.89-4.57-8.46-3.48a3.31,3.31,0,0,0-1.47,4.7c.95,1.72,3.23,2.58,5.07,2.85s5.26-.64,6.43-1c.36.92.73,1.83,1,2.74.19.62.43,1.2.59,1.84s.35,1.24.52,1.86c.28,1.19.59,2.42.84,3.59.18.81.33,1.59.49,2.37-.4-.88-1.22-2.59-1.31-2.72-1.33-2.11-5.13-5.41-7.84-4.72a3.3,3.3,0,0,0-2.16,4.41c.68,1.86,2.8,3,4.58,3.59,2,.6,6.3.05,6.84,0,.26,1.3.5,2.56.71,3.76.73,4.14,1.19,7.63,1.47,10.06,0,.44.09.82.13,1.19h-8.41l3.07,59.88h14.32l3.07-59.88H419l.18-.36c1.07-2.24,2.56-5.46,4.17-9.39.51-1.25,1-2.58,1.56-4,.52.11,4.82,1,6.82.53,1.82-.41,4-1.44,4.83-3.24a3.29,3.29,0,0,0-1.82-4.56c-2.65-.89-6.69,2.11-8.17,4.12-.09.12-.89,1.51-1.38,2.39.21-.56.42-1.11.63-1.69.42-1.15.81-2.31,1.23-3.56.18-.61.37-1.23.55-1.85s.33-1.29.5-1.93c.36-1.52.65-3.06.91-4.63,1,.37,4.61,1.62,6.48,1.49s4.19-.82,5.26-2.47a3.31,3.31,0,0,0-1.11-4.79c-2.48-1.28-6.93,1.08-8.7,2.84-.11.11-1.23,1.51-1.84,2.3.15-.94.3-1.89.42-2.84.34-2.77.61-5.59.88-8.39.08-.86.18-1.72.27-2.57.35.13,4.6,1.71,6.7,1.57,1.85-.13,4.18-.82,5.26-2.47a3.3,3.3,0,0,0-1.11-4.79c-2.48-1.28-6.93,1.08-8.7,2.84-.13.13-1.75,2.16-2.14,2.69.2-1.89.42-3.76.71-5.61a57.28,57.28,0,0,1,1.61-7.37c.16.06,4.59,1.73,6.73,1.58,1.86-.13,4.19-.81,5.27-2.46a3.31,3.31,0,0,0-1.11-4.79c-2.49-1.28-6.94,1.08-8.7,2.84-.14.13-1.88,2.31-2.17,2.73,0-.14.07-.29.11-.43a43.63,43.63,0,0,1,2.92-7c.64-1.24,1.32-2.39,2-3.5.79.4,4.44,2.16,6.38,2.24s4.25-.35,5.5-1.87a3.29,3.29,0,0,0-.58-4.88c-2.32-1.55-7,.31-8.95,1.86-.11.09-1.09,1.07-1.8,1.79.32-.5.63-1,.95-1.48,1.16-1.76,2.34-3.3,3.4-4.65.6-.77,1.17-1.45,1.7-2.08,1,0,4.93-.14,6.66-.95s3.61-2.27,4-4.19A3.3,3.3,0,0,0,452.58,246.2Zm-30.74,74.59c-1.68,3.86-3.23,7-4.34,9.21-.22.44-.42.83-.61,1.19h-.18c-.06-.43-.12-.9-.19-1.42-.34-2.46-.87-6-1.7-10.14-.26-1.31-.56-2.72-.89-4.16a36.59,36.59,0,0,0,3.82-1.79c1.43,1.55,5.09,3.36,5.57,3.59C422.82,318.49,422.32,319.68,421.84,320.79Z" style="fill:#33A3AE"></path><path d="M438,264s.89-3.26.92-3.47c.34-2.47-.45-7.45-3-8.66a3.31,3.31,0,0,0-4.5,2c-.67,1.85.18,4.13,1.2,5.69C433.79,261.35,437.94,264,438,264Z" style="fill:#33A3AE"></path><g style="opacity:0.5"><path d="M388.37,262.88c2,.88,6.9.77,6.91.77s-1.06-3.21-1.15-3.41c-1.07-2.25-4.47-6-7.24-5.59a3.3,3.3,0,0,0-2.65,4.14C384.7,260.71,386.66,262.14,388.37,262.88Z" style="fill:#fff"></path><path d="M452.58,246.2c-2.78-.3-6.08,3.5-7.09,5.78-.09.2-1.11,3.43-1.06,3.43h.06c-.52.6-1.08,1.25-1.67,2-1.09,1.34-2.3,2.86-3.52,4.6a58.82,58.82,0,0,0-3.64,5.8,43.06,43.06,0,0,0-3.11,7s0,.06,0,.09c0-.82,0-3.11,0-3.28-.32-2.48-2.39-7.07-5.14-7.58a3.32,3.32,0,0,0-3.81,3.11c-.16,2,1.27,3.93,2.65,5.18,1.57,1.39,5.92,2.75,6.27,2.86a57.06,57.06,0,0,0-1.84,7.58c-.27,1.5-.49,3-.69,4.53,0-.71,0-1.34,0-1.43-.32-2.47-2.39-7.06-5.14-7.57a3.3,3.3,0,0,0-3.81,3.11c-.16,2,1.26,3.93,2.65,5.17s5.1,2.49,6.08,2.8c-.08.59-.15,1.17-.22,1.75-.34,2.8-.66,5.6-1.06,8.34-.14,1-.32,1.91-.49,2.85,0-.63,0-1.16,0-1.24-.32-2.47-2.39-7.06-5.14-7.57a3.31,3.31,0,0,0-3.81,3.11c-.16,2,1.26,3.93,2.65,5.17s4.74,2.37,5.9,2.75c-.21,1-.41,1.92-.65,2.85-.18.62-.31,1.24-.52,1.86s-.4,1.23-.59,1.84c-.42,1.15-.85,2.34-1.28,3.46-.3.77-.6,1.51-.9,2.25.15-1,.41-2.84.41-3a12.79,12.79,0,0,0-1.72-6.24,3.54,3.54,0,0,0,0-.73,3.31,3.31,0,0,0-4-2.81c-2.7.72-4.41,5.46-4.54,7.95,0,.15.09,1.75.17,2.76-.14-.59-.26-1.16-.41-1.76-.28-1.19-.6-2.38-.93-3.65-.19-.61-.38-1.23-.56-1.85s-.44-1.25-.66-1.89c-.53-1.45-1.14-2.91-1.79-4.36,1-.25,4.74-1.19,6.23-2.33s3-3,3-5a3.3,3.3,0,0,0-3.57-3.38c-2.78.3-5.19,4.72-5.69,7.16,0,.16-.2,1.95-.27,2.94-.4-.87-.79-1.74-1.22-2.61-1.24-2.5-2.57-5-3.89-7.48-.41-.76-.8-1.52-1.2-2.29.37-.08,4.79-1.11,6.45-2.38,1.48-1.14,3.05-3,3-5a3.31,3.31,0,0,0-3.57-3.39c-2.78.3-5.19,4.73-5.69,7.17,0,.18-.27,2.76-.3,3.42-.88-1.68-1.73-3.37-2.51-5.06a58.21,58.21,0,0,1-2.72-7c.17,0,4.79-1.09,6.49-2.4,1.48-1.13,3-3,3-5a3.3,3.3,0,0,0-3.57-3.38c-2.78.3-5.18,4.72-5.69,7.17,0,.19-.29,3-.3,3.47,0-.14-.1-.28-.14-.42a42.51,42.51,0,0,1-1.41-7.43c-.16-1.39-.23-2.72-.27-4,.88-.11,4.89-.64,6.56-1.65s3.35-2.64,3.55-4.6A3.29,3.29,0,0,0,402.6,254c-2.79,0-5.68,4.12-6.44,6.5-.05.12-.33,1.48-.52,2.48,0-.59,0-1.2,0-1.76,0-2.11.13-4,.27-5.76.08-1,.17-1.85.27-2.67.81-.55,4-2.83,5-4.46s1.76-3.89,1-5.72a3.31,3.31,0,0,0-4.55-1.87C395.2,242,394.55,247,395,249.5c0,.21,1,3.47,1,3.44l0,0c-.11.78-.21,1.63-.31,2.56-.17,1.71-.35,3.64-.4,5.76a59.5,59.5,0,0,0,.16,6.85,43.74,43.74,0,0,0,1.27,7.56l0,.09c-.44-.69-1.73-2.58-1.85-2.72-1.63-1.88-5.89-4.57-8.46-3.48a3.31,3.31,0,0,0-1.47,4.7c.95,1.73,3.23,2.58,5.07,2.85,2.08.3,6.45-1,6.8-1.07a58.83,58.83,0,0,0,2.65,7.34c.61,1.4,1.26,2.78,1.92,4.16-.39-.58-.76-1.1-.81-1.17-1.64-1.89-5.9-4.57-8.47-3.48a3.3,3.3,0,0,0-1.46,4.69c.95,1.73,3.22,2.59,5.06,2.85s5.63-.73,6.61-1c.27.53.52,1.06.79,1.58,1.26,2.52,2.54,5,3.71,7.54.42.88.79,1.76,1.17,2.64-.35-.51-.66-.95-.71-1-1.63-1.89-5.89-4.57-8.46-3.48a3.31,3.31,0,0,0-1.47,4.7c.95,1.72,3.23,2.58,5.07,2.85s5.26-.64,6.43-1c.36.92.73,1.83,1,2.74.19.62.43,1.2.59,1.84s.35,1.24.52,1.86c.28,1.19.59,2.42.84,3.59.18.81.33,1.59.49,2.37-.4-.88-1.22-2.59-1.31-2.72-1.33-2.11-5.13-5.41-7.84-4.72a3.3,3.3,0,0,0-2.16,4.41c.68,1.86,2.8,3,4.58,3.59,2,.6,6.3.05,6.84,0,.26,1.3.5,2.56.71,3.76.73,4.14,1.19,7.63,1.47,10.06,0,.44.09.82.13,1.19h-8.41l3.07,59.88h14.32l3.07-59.88H419l.18-.36c1.07-2.24,2.56-5.46,4.17-9.39.51-1.25,1-2.58,1.56-4,.52.11,4.82,1,6.82.53,1.82-.41,4-1.44,4.83-3.24a3.29,3.29,0,0,0-1.82-4.56c-2.65-.89-6.69,2.11-8.17,4.12-.09.12-.89,1.51-1.38,2.39.21-.56.42-1.11.63-1.69.42-1.15.81-2.31,1.23-3.56.18-.61.37-1.23.55-1.85s.33-1.29.5-1.93c.36-1.52.65-3.06.91-4.63,1,.37,4.61,1.62,6.48,1.49s4.19-.82,5.26-2.47a3.31,3.31,0,0,0-1.11-4.79c-2.48-1.28-6.93,1.08-8.7,2.84-.11.11-1.23,1.51-1.84,2.3.15-.94.3-1.89.42-2.84.34-2.77.61-5.59.88-8.39.08-.86.18-1.72.27-2.57.35.13,4.6,1.71,6.7,1.57,1.85-.13,4.18-.82,5.26-2.47a3.3,3.3,0,0,0-1.11-4.79c-2.48-1.28-6.93,1.08-8.7,2.84-.13.13-1.75,2.16-2.14,2.69.2-1.89.42-3.76.71-5.61a57.28,57.28,0,0,1,1.61-7.37c.16.06,4.59,1.73,6.73,1.58,1.86-.13,4.19-.81,5.27-2.46a3.31,3.31,0,0,0-1.11-4.79c-2.49-1.28-6.94,1.08-8.7,2.84-.14.13-1.88,2.31-2.17,2.73,0-.14.07-.29.11-.43a43.63,43.63,0,0,1,2.92-7c.64-1.24,1.32-2.39,2-3.5.79.4,4.44,2.16,6.38,2.24s4.25-.35,5.5-1.87a3.29,3.29,0,0,0-.58-4.88c-2.32-1.55-7,.31-8.95,1.86-.11.09-1.09,1.07-1.8,1.79.32-.5.63-1,.95-1.48,1.16-1.76,2.34-3.3,3.4-4.65.6-.77,1.17-1.45,1.7-2.08,1,0,4.93-.14,6.66-.95s3.61-2.27,4-4.19A3.3,3.3,0,0,0,452.58,246.2Zm-30.74,74.59c-1.68,3.86-3.23,7-4.34,9.21-.22.44-.42.83-.61,1.19h-.18c-.06-.43-.12-.9-.19-1.42-.34-2.46-.87-6-1.7-10.14-.26-1.31-.56-2.72-.89-4.16a36.59,36.59,0,0,0,3.82-1.79c1.43,1.55,5.09,3.36,5.57,3.59C422.82,318.49,422.32,319.68,421.84,320.79Z" style="fill:#fff"></path><path d="M438,264s.89-3.26.92-3.47c.34-2.47-.45-7.45-3-8.66a3.31,3.31,0,0,0-4.5,2c-.67,1.85.18,4.13,1.2,5.69C433.79,261.35,437.94,264,438,264Z" style="fill:#fff"></path></g></g><g id="freepik--character-1--inject-67"><path d="M168,187.19s3.11,1.45,2.7,2.08S168,193,168,193l-6,.21s-1-2.49-.62-3.74S167.18,186.36,168,187.19Z" style="fill:#fff;stroke:#263238;stroke-linecap:round;stroke-linejoin:round"></path><path d="M154.51,193.63s6.43-6.44,7.06-7.27,11.84-1.46,13.71-1.66,2.49,0,1.66,1.24-9.56,2.08-9.56,2.08l-3.11,1.66L162.4,192h2.49c2.08,0,6-.21,6-.21s.63,1.87-1,2.28a26,26,0,0,1-5.82.83c-1.87,0-3.32,1.46-5.19,1.67s-3.33.41-3.33.41S121.69,218.76,120,219.17s-22.22-4.36-22.22-4.36l3.94-10.59,16.83,2.49Z" style="fill:#fff;stroke:#263238;stroke-linecap:round;stroke-linejoin:round"></path><path d="M75.48,197.48s2.31-5.87,7.67-5S120,203.91,120,203.91l-2.29,16.77s-23.5-3.44-29.93-5.55a20.23,20.23,0,0,1-9.42-6.08" style="fill:#33A3AE;stroke:#263238;stroke-linecap:round;stroke-linejoin:round"></path><path d="M255.92,412.76c0,2.6-46.54,4.7-104,4.7s-104-2.1-104-4.7,46.54-4.7,104-4.7S255.92,410.17,255.92,412.76Z" style="fill:#263238"></path><path d="M110,316.09a302.06,302.06,0,0,1-1.85,31.46c-1.13,9.35-2,18.75-2.62,28.14-.35,5-1,9.94-1,14.93,0,2.09-.36,8.47,1.29,10.13a49.29,49.29,0,0,0,6,5.09c2.78,1.85,11.1,3.24,9.72,5.55s-20.82-.93-20.82-.93-4.16,1.39-6.48-1.38,2.78-8.79,3.24-13.88,0-17.12-1.39-34.23,1.39-29.15,1.39-29.15l-1.85-16.19Z" style="fill:#fff;stroke:#263238;stroke-linecap:round;stroke-linejoin:round"></path><path d="M103,402a32.6,32.6,0,0,1-2.16,2.47s-3.47-1.49-5.69-2.28C94,405,93,407.53,94.24,409.08c2.32,2.77,6.48,1.38,6.48,1.38s19.43,3.24,20.82.93-6.94-3.7-9.72-5.55a49.29,49.29,0,0,1-6-5.09A3,3,0,0,0,103,402Z" style="fill:#263238;stroke:#263238;stroke-linecap:round;stroke-linejoin:round"></path><path d="M101.18,317.94s-.46,15.27-1.39,19.9-1.08,10.74-15.72,46.26c-5.13,12.43-6.33,16-6.33,16s.32,5.74,8,8.77c7,2.77,6.48,4.05,3.24,4.05s-7.24,1.21-12.33-.17-7.22-4-9.53-4.89c-3.8-1.53,1.1-6.83,2.26-8.4,2.66-3.57,4.19-8,5.27-12.31,4.63-18.35,3.86-29,5.71-37.32a37.16,37.16,0,0,1,6.93-14.34l-3.23-16.65Z" style="fill:#fff;stroke:#263238;stroke-linecap:round;stroke-linejoin:round"></path><path d="M89,413c3.24,0,3.77-1.28-3.24-4.05-7.69-3-8-8.77-8-8.77l.23-.63a2.18,2.18,0,0,0-2.08.63,12.18,12.18,0,0,1-2.77,2.16l-3.86-2.63c-1.34,1.73-5.82,6.75-2.13,8.23,2.31.93,4.45,3.5,9.53,4.89S85.75,413,89,413Z" style="fill:#263238;stroke:#263238;stroke-linecap:round;stroke-linejoin:round"></path><path d="M91.56,178.1s5.86,8.36,12.45,17.3,8.13,12.62,6.53,18-6.24,13.21-6,16.12,3.6,8.62-.91,10.2c-10.15,3.56-21.4-2.77-21.4-2.77s-3.45-10.79-7-24-.38-23.52,3.34-26.93S87.79,173.63,91.56,178.1Z" style="fill:#33A3AE;stroke:#263238;stroke-linecap:round;stroke-linejoin:round"></path><circle cx="76.9" cy="138.97" r="9.92" style="fill:#263238;stroke:#263238;stroke-linecap:round;stroke-linejoin:round"></circle><path d="M116.4,147.2s6.72-.64,7.68-5.76-7-10.23-10.23-10.23a11.08,11.08,0,0,1-4.48-.64s-8.64-4.48-17.92-.64S79.3,142.72,81.22,150.4s7.35,15.36,15,16S116.4,147.2,116.4,147.2Z" style="fill:#263238;stroke:#263238;stroke-linecap:round;stroke-linejoin:round"></path><path d="M111.47,135.38a23.88,23.88,0,0,1-11.6,10.87c-8.33,3.62-17,4.35-17.75,0" style="fill:none;stroke:#fff;stroke-linecap:round;stroke-linejoin:round"></path><path d="M104.22,133.21s-5.8,12.68-14.49,12.68" style="fill:none;stroke:#fff;stroke-linecap:round;stroke-linejoin:round"></path><path d="M112.31,137.62s10-5.86,8.94,3.92" style="fill:none;stroke:#fff;stroke-linecap:round;stroke-linejoin:round"></path><path d="M84.65,133.93s-4.53,6.72-4,11.59" style="fill:none;stroke:#fff;stroke-linecap:round;stroke-linejoin:round"></path><path d="M103.93,171.52a28,28,0,0,0-2.72,9.22,20.51,20.51,0,0,0,1.05,7.92l-10.78-11.3s.73-3.2,2-8.41,1.6-7.57,1.6-7.57Z" style="fill:#fff;stroke:#263238;stroke-linecap:round;stroke-linejoin:round"></path><polygon points="90.25 172.65 103.18 184.78 101.94 196.28 85.61 178.36 90.25 172.65" style="fill:#fff;stroke:#263238;stroke-linecap:round;stroke-linejoin:round"></polygon><path d="M112.31,137.62s5.75,4,6.89,9-.17,8.06,1,10.9,3.73,3.49,1.81,4.43-4.47,2.1-4.47,2.1S115.07,173.3,114,175s-4,.67-7.65-1-11.06-6.85-11.75-8.44a36.18,36.18,0,0,1-1.29-3.76S112.66,150.83,112.31,137.62Z" style="fill:#fff;stroke:#263238;stroke-linecap:round;stroke-linejoin:round"></path><path d="M98.49,159s-2.88-8-6.4-5.44-2.47,6.34,1.17,8.13,4.91.19,4.91.19" style="fill:#fff;stroke:#263238;stroke-linecap:round;stroke-linejoin:round"></path><path d="M114.32,155.82c-.12.89.08,1.65.45,1.69s.77-.63.88-1.51-.08-1.65-.45-1.7S114.43,154.93,114.32,155.82Z" style="fill:#263238"></path><path d="M115.34,166.58s-3.67-1-4.73-3.35" style="fill:none;stroke:#263238;stroke-linecap:round;stroke-linejoin:round"></path><path d="M117.93,151.12s-1.78-3-3.9-1.33" style="fill:none;stroke:#263238;stroke-linecap:round;stroke-linejoin:round;stroke-width:0.75px"></path><path d="M82.22,237a284.43,284.43,0,0,0-11.11,26.83c-4.62,13.42,10.64,58.75,10.64,58.75h31.46V268.45c0-22.21-7.09-32.39-7.09-32.39S98.41,239.76,82.22,237Z" style="fill:#263238;stroke:#263238;stroke-linecap:round;stroke-linejoin:round"></path><polygon points="180.12 224.24 175.01 224.24 175.01 194.86 180.12 190.21 180.12 224.24" style="fill:#263238;stroke:#263238;stroke-linecap:round;stroke-linejoin:round"></polygon><rect x="176.29" y="159.09" width="5.75" height="58.12" transform="matrix(0.83, 0.56, -0.56, 0.83, 134.98, -67.87)" style="fill:#263238;stroke:#263238;stroke-linecap:round;stroke-linejoin:round"></rect><path d="M209.59,200.47l-34.9,6.21v13.41h46.63v-9.8A10,10,0,0,0,209.59,200.47Z" style="fill:#263238;stroke:#263238;stroke-linecap:round;stroke-linejoin:round"></path><rect x="140.84" y="218.18" width="80.48" height="16.61" style="fill:#263238;stroke:#263238;stroke-linecap:round;stroke-linejoin:round"></rect><rect x="112.55" y="241.47" width="142.96" height="172.25" style="fill:#33A3AE;stroke:#263238;stroke-linecap:round;stroke-linejoin:round"></rect><rect x="112.55" y="241.47" width="142.96" height="6.73" style="fill:#263238;stroke:#263238;stroke-linecap:round;stroke-linejoin:round"></rect><path d="M108.82,213.72l6.07,6.43,49.65,10.71,12.5-3.21,9.64,6.78c-2.5.72-9.29-2.14-9.29-2.14s-3.57,2.5-7.14,2.5H159.54s-44.29-3.93-46.43-3.93-13.93-9.28-13.93-9.28Z" style="fill:#fff;stroke:#263238;stroke-linecap:round;stroke-linejoin:round"></path><path d="M80.08,186.81s4.94-3.93,9.13-.45,23.05,26.38,23.05,26.38l-9.33,13.39s-16.51-12.84-21-17.88a20.28,20.28,0,0,1-5.12-10" style="fill:#33A3AE;stroke:#263238;stroke-linecap:round;stroke-linejoin:round"></path><rect x="108.19" y="233.96" width="154.57" height="9.39" style="fill:#fff;stroke:#263238;stroke-linecap:round;stroke-linejoin:round"></rect></g></svg>